# xmcd CD database file
#
# Track frame offsets:
#	150
#	35485
#	54422
#	71125
#	87547
#	103630
#	115820
#	129187
#	143240
#	157300
#	166440
#	177607
#	193055
#	204060
#	232697
#	243525
#	256267
#	268937
#
# Disc length: 3764 seconds
#
# Revision: 2
# Processed by: cddbd v1.5.2PL0 Copyright (c) Steve Scherf et al.
# Submitted via: CDex 1.77
#
DISCID=060eb212
DTITLE=Ultimate - Jazz Piano
DYEAR=1998
DGENRE=Jazz
TTITLE0=Never Say Yes
TTITLE1=Sophisticated Lady
TTITLE2=Stompin' at The Savoy
TTITLE3=52nd Street Theme
TTITLE4=Good Times Blues
TTITLE5=Boogie Woogie Man
TTITLE6=Harlem Bound
TTITLE7=Boogie Woogie Boogie
TTITLE8=Body and Soul
TTITLE9=Boogie Woogie Prayer
TTITLE10=The Curse of an Aching Heart
TTITLE11=Indiana
TTITLE12=Watch for The Light
TTITLE13=The Lamp is Low
TTITLE14=Steeple Chase Rag
TTITLE15=Squeese  Me - Ain't Misbehavin'
TTITLE16=Christopher Columbus
TTITLE17=Some Sunday Morning
EXTD=YEAR: 1998
EXTT0=
EXTT1=
EXTT2=
EXTT3=
EXTT4=
EXTT5=
EXTT6=
EXTT7=
EXTT8=
EXTT9=
EXTT10=
EXTT11=
EXTT12=
EXTT13=
EXTT14=
EXTT15=
EXTT16=
EXTT17=
PLAYORDER=
